0
SECTION
2
HEADER
999
DXF File Generated by LightWave 3D(TM)
0
ENDSEC
0
SECTION
2
TABLES
0
ENDSEC
0
SECTION
2
BLOCKS
0
ENDSEC
0
SECTION
2
ENTITIES
0
POINT
8
0
70
0
10
16.352737
20
7.643122
30
-0.626015
0
POINT
8
0
70
0
10
16.352737
20
7.643122
30
-0.626015
0
POINT
8
0
70
0
10
16.565382
20
7.581118
30
-1.041078
0
POINT
8
0
70
0
10
16.565382
20
7.581118
30
-1.041078
0
3DFACE
8
0
70
0
13
15.909535
23
6.541355
33
-0.449655
12
15.484806
22
6.654276
32
-0.658990
11
15.509307
21
7.123114
31
-0.721383
10
15.941865
20
7.123114
30
-0.652322
0
3DFACE
8
0
70
0
13
15.498331
23
6.417364
33
-1.127010
12
15.547708
22
7.123114
32
-1.130621
11
15.509307
21
7.123114
31
-0.721383
10
15.484806
20
6.654276
30
-0.658990
0
3DFACE
8
0
70
0
13
16.032009
23
4.323146
33
-0.418244
12
15.559236
22
4.359920
32
-0.721383
11
15.509307
21
4.761474
31
-0.721383
10
15.941865
20
4.761474
30
-0.466771
0
3DFACE
8
0
70
0
13
15.748271
23
4.384995
33
-1.024522
12
15.547708
22
4.761474
32
-1.006920
11
15.509307
21
4.761474
31
-0.721383
10
15.559236
20
4.359920
30
-0.721383
0
3DFACE
8
0
70
0
13
15.509307
23
4.761474
33
-0.721383
12
15.547708
22
4.761474
32
-1.006920
11
15.268350
21
5.159364
31
-1.118867
10
15.332971
20
5.005664
30
-0.642027
0
3DFACE
8
0
70
0
13
15.941865
23
4.761474
33
-0.466771
12
15.509307
22
4.761474
32
-0.721383
11
15.332971
21
5.005664
31
-0.642027
10
15.803254
20
5.159654
30
-0.225037
0
3DFACE
8
0
70
0
13
15.803254
23
5.159654
33
-0.225037
12
15.401482
22
5.287415
32
-0.167421
11
15.452619
21
5.784256
31
-0.358594
10
15.924601
20
6.008945
30
-0.406999
0
3DFACE
8
0
70
0
13
14.971689
23
5.735674
33
-0.149314
12
15.055752
22
6.007978
32
-0.081734
11
15.452619
21
5.784256
31
-0.358594
10
15.401482
20
5.287415
30
-0.167421
0
3DFACE
8
0
70
0
13
15.452619
23
5.784256
33
-0.358594
12
15.055752
22
6.007978
32
-0.081734
11
15.044213
21
6.279423
31
-0.125676
10
15.485888
20
6.002165
30
-0.434787
0
3DFACE
8
0
70
0
13
15.452619
23
5.784256
33
-0.358594
12
15.485888
22
6.002165
32
-0.434787
11
15.909535
21
6.541355
31
-0.449655
10
15.924601
20
6.008945
30
-0.406999
0
3DFACE
8
0
70
0
13
15.332971
23
5.005664
33
-0.642027
12
15.175061
22
5.131301
32
-0.403956
11
15.401482
21
5.287415
31
-0.167421
10
15.803254
20
5.159654
30
-0.225037
0
3DFACE
8
0
70
0
13
15.332971
23
5.005664
33
-0.642027
12
15.268350
22
5.159364
32
-1.118867
11
14.976777
21
5.316521
31
-0.750231
10
15.175061
20
5.131301
30
-0.403956
0
3DFACE
8
0
70
0
13
15.175061
23
5.131301
33
-0.403956
12
14.976777
22
5.316521
32
-0.750231
11
14.726820
21
5.852774
31
-0.472004
10
14.829189
20
5.739504
30
-0.250769
0
3DFACE
8
0
70
0
13
15.175061
23
5.131301
33
-0.403956
12
14.829189
22
5.739504
32
-0.250769
11
14.971689
21
5.735674
31
-0.149314
10
15.401482
20
5.287415
30
-0.167421
0
3DFACE
8
0
70
0
13
15.268350
23
5.159364
33
-1.118867
12
15.314655
22
5.940304
32
-1.172343
11
14.948197
21
5.874607
31
-0.888273
10
14.976777
20
5.316521
30
-0.750231
0
3DFACE
8
0
70
0
13
14.948197
23
5.874607
33
-0.888273
12
15.314655
22
5.940304
32
-1.172343
11
15.498331
21
6.417364
31
-1.127010
10
15.061185
20
6.433296
30
-0.801120
0
3DFACE
8
0
70
0
13
14.948197
23
5.874607
33
-0.888273
12
15.061185
22
6.433296
32
-0.801120
11
14.799344
21
6.348652
31
-0.544110
10
14.698334
20
6.004539
30
-0.577796
0
3DFACE
8
0
70
0
13
14.726820
23
5.852774
33
-0.472004
12
14.976777
22
5.316521
32
-0.750231
11
14.948197
21
5.874607
31
-0.888273
10
14.698334
20
6.004539
30
-0.577796
0
3DFACE
8
0
70
0
13
15.044213
23
6.279423
33
-0.125676
12
14.941844
22
6.464502
32
-0.346910
11
15.256680
21
6.280161
31
-0.471810
10
15.485888
20
6.002165
30
-0.434787
0
3DFACE
8
0
70
0
13
14.799344
23
6.348652
33
-0.544110
12
15.061185
22
6.433296
32
-0.801120
11
15.256680
21
6.280161
31
-0.471810
10
14.941844
20
6.464502
30
-0.346910
0
3DFACE
8
0
70
0
13
15.061185
23
6.433296
33
-0.801120
12
15.498331
22
6.417364
32
-1.127010
11
15.484806
21
6.654276
31
-0.658990
10
15.256680
20
6.280161
30
-0.471810
0
3DFACE
8
0
70
0
13
15.485888
23
6.002165
33
-0.434787
12
15.256680
22
6.280161
32
-0.471810
11
15.484806
21
6.654276
31
-0.658990
10
15.909535
20
6.541355
30
-0.449655
0
3DFACE
8
0
70
0
13
14.971689
23
5.735674
33
-0.149314
12
14.633174
22
6.255894
32
0.090056
11
14.741128
21
6.517914
31
0.146558
10
15.055752
20
6.007978
30
-0.081734
0
3DFACE
8
0
70
0
13
15.055752
23
6.007978
33
-0.081734
12
14.741128
22
6.517914
32
0.146558
11
14.788098
21
6.778839
31
0.046447
10
15.044213
20
6.279423
30
-0.125676
0
3DFACE
8
0
70
0
13
14.726820
23
5.852774
33
-0.472004
12
14.545964
22
6.300489
32
-0.188293
11
14.611620
21
6.214972
31
-0.057808
10
14.829189
20
5.739504
30
-0.250769
0
3DFACE
8
0
70
0
13
14.971689
23
5.735674
33
-0.149314
12
14.829189
22
5.739504
32
-0.250769
11
14.611620
21
6.214972
31
-0.057808
10
14.633174
20
6.255894
30
0.090056
0
3DFACE
8
0
70
0
13
14.726820
23
5.852774
33
-0.472004
12
14.698334
22
6.004539
32
-0.577796
11
14.497190
21
6.513542
31
-0.288403
10
14.545964
20
6.300489
30
-0.188293
0
3DFACE
8
0
70
0
13
14.698334
23
6.004539
33
-0.577796
12
14.799344
22
6.348652
32
-0.544110
11
14.605145
21
6.775562
31
-0.279773
10
14.497190
20
6.513542
30
-0.288403
0
3DFACE
8
0
70
0
13
14.799344
23
6.348652
33
-0.544110
12
14.941844
22
6.464502
32
-0.346910
11
14.770314
21
6.720743
31
-0.131910
10
14.605145
20
6.775562
30
-0.279773
0
3DFACE
8
0
70
0
13
15.044213
23
6.279423
33
-0.125676
12
14.788098
22
6.778839
32
0.046447
11
14.770314
21
6.720743
31
-0.131910
10
14.941844
20
6.464502
30
-0.346910
0
3DFACE
8
0
70
0
13
14.201359
23
6.777300
33
0.152111
12
14.287861
22
6.935396
32
0.159823
11
14.552893
21
6.796368
31
0.236552
10
14.322642
20
6.744793
30
0.201102
0
3DFACE
8
0
70
0
13
14.201359
23
6.777300
33
0.152111
12
14.272216
22
6.682228
32
-0.075036
11
14.304115
21
6.780866
31
-0.133342
10
14.287861
20
6.935396
30
0.159823
0
3DFACE
8
0
70
0
13
14.304115
23
6.780866
33
-0.133342
12
14.515653
22
6.891256
32
-0.086563
11
14.611818
21
7.003340
31
0.052162
10
14.287861
20
6.935396
30
0.159823
0
3DFACE
8
0
70
0
13
14.552893
23
6.796368
33
0.236552
12
14.287861
22
6.935396
32
0.159823
11
14.611818
21
7.003340
31
0.052162
10
14.683949
20
6.750204
30
0.129575
0
3DFACE
8
0
70
0
13
16.279093
23
4.341532
33
-0.365195
12
16.032009
22
4.323146
32
-0.418244
11
15.941865
21
4.761474
31
-0.466771
10
16.318672
20
4.761474
30
-0.398565
0
3DFACE
8
0
70
0
13
16.318672
23
4.761474
33
-0.398565
12
15.941865
22
4.761474
32
-0.466771
11
15.803254
21
5.159654
31
-0.225037
10
16.233904
20
5.181369
30
-0.200385
0
3DFACE
8
0
70
0
13
16.233904
23
5.181369
33
-0.200385
12
15.803254
22
5.159654
32
-0.225037
11
15.924601
21
6.008945
31
-0.406999
10
16.316225
20
5.995882
30
-0.374864
0
3DFACE
8
0
70
0
13
16.316225
23
5.995882
33
-0.374864
12
15.924601
22
6.008945
32
-0.406999
11
15.909535
21
6.541355
31
-0.449655
10
16.225193
20
6.634092
30
-0.297231
0
3DFACE
8
0
70
0
13
16.225193
23
6.634092
33
-0.297231
12
15.909535
22
6.541355
32
-0.449655
11
15.941865
21
7.123114
31
-0.652322
10
16.194971
20
7.061264
30
-0.707816
0
3DFACE
8
0
70
0
13
17.435432
23
6.521757
33
-0.721383
12
17.298990
22
6.597387
32
-0.926002
11
17.391766
21
6.293880
31
-0.926002
10
17.547768
20
6.293880
30
-0.721383
0
3DFACE
8
0
70
0
13
17.298990
23
6.597387
33
-0.926002
12
17.162546
22
6.673019
32
-0.945070
11
17.235764
21
6.293880
31
-1.130621
10
17.391766
20
6.293880
30
-0.926002
0
3DFACE
8
0
70
0
13
17.547768
23
6.293880
33
-0.721383
12
17.391766
22
6.293880
32
-0.926002
11
17.391766
21
5.951895
31
-0.926002
10
17.547768
20
5.951895
30
-0.721383
0
3DFACE
8
0
70
0
13
17.391766
23
6.293880
33
-0.926002
12
17.235764
22
6.293880
32
-1.130621
11
17.235764
21
5.951895
31
-1.130621
10
17.391766
20
5.951895
30
-0.926002
0
3DFACE
8
0
70
0
13
17.547768
23
5.951895
33
-0.721383
12
17.391766
22
5.951895
32
-0.926002
11
17.391766
21
5.203082
31
-0.926002
10
17.547768
20
5.203082
30
-0.721383
0
3DFACE
8
0
70
0
13
17.391766
23
5.951895
33
-0.926002
12
17.235764
22
5.951895
32
-1.130621
11
17.235764
21
5.203082
31
-1.130621
10
17.391766
20
5.203082
30
-0.926002
0
3DFACE
8
0
70
0
13
17.547768
23
5.203082
33
-0.721383
12
17.391766
22
5.203082
32
-0.926002
11
17.051588
21
4.776937
31
-0.864152
10
17.083891
20
4.792399
30
-0.721383
0
3DFACE
8
0
70
0
13
17.391766
23
5.203082
33
-0.926002
12
17.235764
22
5.203082
32
-1.130621
11
17.019287
21
4.761474
31
-1.006920
10
17.051588
20
4.776937
30
-0.864152
0
3DFACE
8
0
70
0
13
17.083891
23
4.792399
33
-0.721383
12
17.051588
22
4.776937
32
-0.864152
11
17.054586
21
4.326070
31
-0.872953
10
17.095812
20
4.267144
30
-0.721383
0
3DFACE
8
0
70
0
13
17.051588
23
4.776937
33
-0.864152
12
17.019287
22
4.761474
32
-1.006920
11
17.013359
21
4.384995
31
-1.024522
10
17.054586
20
4.326070
30
-0.872953
0
3DFACE
8
0
70
0
13
17.032480
23
6.870028
33
-0.537812
12
17.369799
22
6.575279
32
-0.485839
11
17.468292
21
6.293880
31
-0.485839
10
17.203264
20
6.448507
30
-0.312145
0
3DFACE
8
0
70
0
13
17.369799
23
6.575279
33
-0.485839
12
17.435432
22
6.521757
32
-0.721383
11
17.547768
21
6.293880
31
-0.721383
10
17.468292
20
6.293880
30
-0.485839
0
3DFACE
8
0
70
0
13
17.203264
23
6.448507
33
-0.312145
12
17.468292
22
6.293880
32
-0.485839
11
17.468292
21
5.951895
31
-0.485839
10
17.215633
20
6.156000
30
-0.472956
0
3DFACE
8
0
70
0
13
17.468292
23
6.293880
33
-0.485839
12
17.547768
22
6.293880
32
-0.721383
11
17.547768
21
5.951895
31
-0.721383
10
17.468292
20
5.951895
30
-0.485839
0
3DFACE
8
0
70
0
13
17.215633
23
6.156000
33
-0.472956
12
17.468292
22
5.951895
32
-0.485839
11
17.468292
21
5.203082
31
-0.485839
10
17.203264
20
5.357707
30
-0.312145
0
3DFACE
8
0
70
0
13
17.468292
23
5.951895
33
-0.485839
12
17.547768
22
5.951895
32
-0.721383
11
17.547768
21
5.203082
31
-0.721383
10
17.468292
20
5.203082
30
-0.485839
0
3DFACE
8
0
70
0
13
17.203264
23
5.357707
33
-0.312145
12
17.468292
22
5.203082
32
-0.485839
11
17.019876
21
4.792399
31
-0.563152
10
16.986788
20
4.947024
30
-0.466771
0
3DFACE
8
0
70
0
13
17.468292
23
5.203082
33
-0.485839
12
17.547768
22
5.203082
32
-0.721383
11
17.083891
21
4.792399
31
-0.721383
10
17.019876
20
4.792399
30
-0.563152
0
3DFACE
8
0
70
0
13
16.986788
23
4.947024
33
-0.466771
12
17.019876
22
4.792399
32
-0.563152
11
17.053537
21
4.295146
31
-0.538888
10
16.825710
20
4.377771
30
-0.418244
0
3DFACE
8
0
70
0
13
17.019876
23
4.792399
33
-0.563152
12
17.083891
22
4.792399
32
-0.721383
11
17.095812
21
4.267144
31
-0.721383
10
17.053537
20
4.295146
30
-0.538888
0
3DFACE
8
0
70
0
13
17.435432
23
6.521757
33
-0.721383
12
17.556681
22
7.199783
32
-0.420952
11
17.581720
21
7.233992
31
-0.775018
10
17.298990
20
6.597387
30
-0.926002
0
3DFACE
8
0
70
0
13
17.065908
23
6.773172
33
-0.991543
12
17.148926
22
7.442036
32
-0.807334
11
17.154810
21
7.438755
31
-0.465638
10
17.032480
20
6.870028
30
-0.537812
0
3DFACE
8
0
70
0
13
17.581720
23
7.233992
33
-0.775018
12
17.365324
22
7.338015
32
-0.791176
11
17.162546
21
6.673019
31
-0.945070
10
17.298990
20
6.597387
30
-0.926002
0
3DFACE
8
0
70
0
13
17.365324
23
7.338015
33
-0.791176
12
17.148926
22
7.442036
32
-0.807334
11
17.065908
21
6.773172
31
-0.991543
10
17.162546
20
6.673019
30
-0.945070
0
3DFACE
8
0
70
0
13
17.435432
23
6.521757
33
-0.721383
12
17.369799
22
6.575279
32
-0.485839
11
17.371208
21
7.334732
31
-0.449480
10
17.556681
20
7.199783
30
-0.420952
0
3DFACE
8
0
70
0
13
17.369799
23
6.575279
33
-0.485839
12
17.032480
22
6.870028
32
-0.537812
11
17.154810
21
7.438755
31
-0.465638
10
17.371208
20
7.334732
30
-0.449480
0
3DFACE
8
0
70
0
13
17.616312
23
7.989611
33
-0.129067
12
17.416636
22
8.165668
32
-0.144352
11
17.435911
21
8.236076
31
-0.427070
10
17.635588
20
8.060020
30
-0.411785
0
3DFACE
8
0
70
0
13
17.416636
23
8.165668
33
-0.144352
12
17.219875
22
8.162386
32
-0.158584
11
17.239151
21
8.232796
31
-0.441302
10
17.435911
20
8.236076
30
-0.427070
0
3DFACE
8
0
70
0
13
17.556681
23
7.199783
33
-0.420952
12
17.581442
22
7.402302
32
-0.404137
11
17.603891
21
7.436680
31
-0.722423
10
17.581720
20
7.233992
30
-0.775018
0
3DFACE
8
0
70
0
13
17.603891
23
7.436680
33
-0.722423
12
17.388077
22
7.504833
32
-0.738371
11
17.365324
21
7.338015
31
-0.791176
10
17.581720
20
7.233992
30
-0.775018
0
3DFACE
8
0
70
0
13
17.556681
23
7.199783
33
-0.420952
12
17.371208
22
7.334732
32
-0.449480
11
17.364332
21
7.470541
31
-0.402194
10
17.581442
20
7.402302
30
-0.404137
0
3DFACE
8
0
70
0
13
17.154810
23
7.438755
33
-0.465638
12
17.148926
22
7.442036
32
-0.807334
11
17.172262
21
7.572987
31
-0.754318
10
17.147221
20
7.538780
30
-0.400252
0
3DFACE
8
0
70
0
13
17.371208
23
7.334732
33
-0.449480
12
17.154810
22
7.438755
32
-0.465638
11
17.147221
21
7.538780
31
-0.400252
10
17.364332
20
7.470541
30
-0.402194
0
3DFACE
8
0
70
0
13
17.655090
23
7.798246
33
-0.556115
12
17.607601
22
7.619139
32
-0.348462
11
17.616312
21
7.989611
31
-0.129067
10
17.635588
20
8.060020
30
-0.411785
0
3DFACE
8
0
70
0
13
17.603891
23
7.436680
33
-0.722423
12
17.581442
22
7.402302
32
-0.404137
11
17.607601
21
7.619139
31
-0.348462
10
17.655090
20
7.798246
30
-0.556115
0
3DFACE
8
0
70
0
13
17.603891
23
7.436680
33
-0.722423
12
17.655090
22
7.798246
32
-0.556115
11
17.406147
21
7.860535
31
-0.572846
10
17.388077
20
7.504833
30
-0.738371
0
3DFACE
8
0
70
0
13
17.549431
23
7.964567
33
-0.540543
12
17.559586
22
8.177691
32
-0.441843
11
17.428419
21
8.175503
31
-0.451331
10
17.447136
20
8.000889
30
-0.547052
0
3DFACE
8
0
70
0
13
17.607601
23
7.619139
33
-0.348462
12
17.393703
22
7.681984
32
-0.347147
11
17.416636
21
8.165668
31
-0.144352
10
17.616312
20
7.989611
30
-0.129067
0
3DFACE
8
0
70
0
13
17.581442
23
7.402302
33
-0.404137
12
17.364332
22
7.470541
32
-0.402194
11
17.393703
21
7.681984
31
-0.347147
10
17.607601
20
7.619139
30
-0.348462
0
3DFACE
8
0
70
0
13
17.193279
23
7.923326
33
-0.586612
12
17.239151
22
8.232796
32
-0.441302
11
17.219875
21
8.162386
31
-0.158584
10
17.180269
20
7.744688
30
-0.345713
0
3DFACE
8
0
70
0
13
17.172262
23
7.572987
33
-0.754318
12
17.193279
22
7.923326
32
-0.586612
11
17.180269
21
7.744688
31
-0.345713
10
17.147221
20
7.538780
30
-0.400252
0
3DFACE
8
0
70
0
13
17.388077
23
7.504833
33
-0.738371
12
17.406147
22
7.860535
32
-0.572846
11
17.193279
21
7.923326
31
-0.586612
10
17.172262
20
7.572987
30
-0.754318
0
3DFACE
8
0
70
0
13
17.447136
23
8.000889
33
-0.547052
12
17.428419
22
8.175503
32
-0.451331
11
17.297251
21
8.173313
31
-0.460819
10
17.266270
20
7.996021
30
-0.558818
0
3DFACE
8
0
70
0
13
17.393703
23
7.681984
33
-0.347147
12
17.180269
22
7.744688
32
-0.345713
11
17.219875
21
8.162386
31
-0.158584
10
17.416636
20
8.165668
30
-0.144352
0
3DFACE
8
0
70
0
13
17.364332
23
7.470541
33
-0.402194
12
17.147221
22
7.538780
32
-0.400252
11
17.180269
21
7.744688
31
-0.345713
10
17.393703
20
7.681984
30
-0.347147
0
3DFACE
8
0
70
0
13
17.549431
23
7.964567
33
-0.540543
12
17.569815
22
7.848804
32
-0.527274
11
17.580032
21
8.186714
31
-0.415687
10
17.559586
20
8.177691
30
-0.441843
0
3DFACE
8
0
70
0
13
17.569815
23
7.848804
33
-0.527274
12
17.655090
22
7.798246
32
-0.556115
11
17.635588
21
8.060020
31
-0.411785
10
17.580032
20
8.186714
30
-0.415687
0
3DFACE
8
0
70
0
13
17.559586
23
8.177691
33
-0.441843
12
17.580032
22
8.186714
32
-0.415687
11
17.429510
21
8.184200
31
-0.426575
10
17.428419
20
8.175503
30
-0.451331
0
3DFACE
8
0
70
0
13
17.580032
23
8.186714
33
-0.415687
12
17.635588
22
8.060020
32
-0.411785
11
17.435911
21
8.236076
31
-0.427070
10
17.429510
20
8.184200
30
-0.426575
0
3DFACE
8
0
70
0
13
17.428419
23
8.175503
33
-0.451331
12
17.429510
22
8.184200
32
-0.426575
11
17.278988
21
8.181690
31
-0.437463
10
17.297251
20
8.173313
30
-0.460819
0
3DFACE
8
0
70
0
13
17.429510
23
8.184200
33
-0.426575
12
17.435911
22
8.236076
32
-0.427070
11
17.239151
21
8.232796
31
-0.441302
10
17.278988
20
8.181690
30
-0.437463
0
3DFACE
8
0
70
0
13
17.297251
23
8.173313
33
-0.460819
12
17.278988
22
8.181690
32
-0.437463
11
17.243896
21
7.944944
31
-0.548625
10
17.266270
20
7.996021
30
-0.558818
0
3DFACE
8
0
70
0
13
17.278988
23
8.181690
33
-0.437463
12
17.239151
22
8.232796
32
-0.441302
11
17.193279
21
7.923326
31
-0.586612
10
17.243896
20
7.944944
30
-0.548625
0
3DFACE
8
0
70
0
13
17.266270
23
7.996021
33
-0.558818
12
17.243896
22
7.944944
32
-0.548625
11
17.406740
21
7.896912
31
-0.538094
10
17.447136
20
8.000889
30
-0.547052
0
3DFACE
8
0
70
0
13
17.243896
23
7.944944
33
-0.548625
12
17.193279
22
7.923326
32
-0.586612
11
17.406147
21
7.860535
31
-0.572846
10
17.406740
20
7.896912
30
-0.538094
0
3DFACE
8
0
70
0
13
17.447136
23
8.000889
33
-0.547052
12
17.406740
22
7.896912
32
-0.538094
11
17.569815
21
7.848804
31
-0.527274
10
17.549431
20
7.964567
30
-0.540543
0
3DFACE
8
0
70
0
13
17.406740
23
7.896912
33
-0.538094
12
17.406147
22
7.860535
32
-0.572846
11
17.655090
21
7.798246
31
-0.556115
10
17.569815
20
7.848804
30
-0.527274
0
3DFACE
8
0
70
0
13
17.088133
23
7.459934
33
-0.939939
12
16.846970
22
7.555248
32
-0.939939
11
16.772991
21
6.989845
31
-1.029622
10
17.065908
20
6.773172
30
-0.991543
0
3DFACE
8
0
70
0
13
17.032480
23
6.870028
33
-0.537812
12
16.817591
22
6.950186
32
-0.557786
11
16.862709
21
7.516739
31
-0.569997
10
17.103872
20
7.421425
30
-0.569997
0
3DFACE
8
0
70
0
13
16.817591
23
6.950186
33
-0.557786
12
16.602703
22
7.030340
32
-0.577760
11
16.631546
21
7.647051
31
-0.554997
10
16.862709
20
7.516739
30
-0.569997
0
3DFACE
8
0
70
0
13
17.088133
23
7.459934
33
-0.939939
12
17.130772
22
7.976030
32
-0.797683
11
16.892977
21
8.032833
31
-0.797683
10
16.846970
20
7.555248
30
-0.939939
0
3DFACE
8
0
70
0
13
17.103872
23
7.421425
33
-0.569997
12
16.862709
22
7.516739
32
-0.569997
11
16.896347
21
7.994323
31
-0.434700
10
17.134140
20
7.937521
30
-0.454028
0
3DFACE
8
0
70
0
13
16.862709
23
7.516739
33
-0.569997
12
16.631546
22
7.647051
32
-0.554997
11
16.658552
21
8.051128
31
-0.415372
10
16.896347
20
7.994323
30
-0.434700
0
3DFACE
8
0
70
0
13
16.846970
23
7.555248
33
-0.939939
12
16.892977
22
8.032833
32
-0.797683
11
16.655184
21
8.089636
31
-0.797683
10
16.702396
20
7.648453
30
-0.937309
0
3DFACE
8
0
70
0
13
17.130772
23
7.976030
33
-0.797683
12
17.116718
22
8.284792
32
-0.639035
11
16.881908
21
8.323961
31
-0.641147
10
16.892977
20
8.032833
30
-0.797683
0
3DFACE
8
0
70
0
13
17.009270
23
8.421631
33
-0.624545
12
17.029758
22
8.634430
32
-0.514229
11
16.888565
21
8.622076
31
-0.514229
10
16.912088
20
8.447033
30
-0.625680
0
3DFACE
8
0
70
0
13
17.130995
23
8.037754
33
-0.420421
12
16.897003
22
8.089001
32
-0.402045
11
16.900621
21
8.610754
31
-0.183433
10
17.129269
20
8.436737
30
-0.183433
0
3DFACE
8
0
70
0
13
17.134140
23
7.937521
33
-0.454028
12
16.896347
22
7.994323
32
-0.434700
11
16.897003
21
8.089001
31
-0.402045
10
17.130995
20
8.037754
30
-0.420421
0
3DFACE
8
0
70
0
13
16.892977
23
8.032833
33
-0.797683
12
16.881908
22
8.323961
32
-0.641147
11
16.680527
21
8.365705
31
-0.642963
10
16.655184
20
8.089636
30
-0.797683
0
3DFACE
8
0
70
0
13
16.912088
23
8.447033
33
-0.625680
12
16.888565
22
8.622076
32
-0.514229
11
16.747372
21
8.609724
31
-0.514229
10
16.744881
20
8.431858
30
-0.623755
0
3DFACE
8
0
70
0
13
16.897003
23
8.089001
33
-0.402045
12
16.663532
22
8.140139
32
-0.383576
11
16.688822
21
8.592222
31
-0.183433
10
16.900621
20
8.610754
30
-0.183433
0
3DFACE
8
0
70
0
13
16.896347
23
7.994323
33
-0.434700
12
16.658552
22
8.051128
32
-0.415372
11
16.663532
21
8.140139
31
-0.383576
10
16.897003
20
8.089001
30
-0.402045
0
3DFACE
8
0
70
0
13
17.009270
23
8.421631
33
-0.624545
12
17.036758
22
8.321375
32
-0.605100
11
17.053032
21
8.645700
31
-0.487664
10
17.029758
20
8.634430
30
-0.514229
0
3DFACE
8
0
70
0
13
17.036758
23
8.321375
33
-0.605100
12
17.116718
22
8.284792
32
-0.639035
11
17.122532
21
8.513754
31
-0.488432
10
17.053032
20
8.645700
30
-0.487664
0
3DFACE
8
0
70
0
13
17.029758
23
8.634430
33
-0.514229
12
17.053032
22
8.645700
32
-0.487664
11
16.891005
21
8.631523
31
-0.487664
10
16.888565
20
8.622076
30
-0.514229
0
3DFACE
8
0
70
0
13
17.053032
23
8.645700
33
-0.487664
12
17.122532
22
8.513754
32
-0.488432
11
16.893883
21
8.687773
31
-0.488432
10
16.891005
20
8.631523
30
-0.487664
0
3DFACE
8
0
70
0
13
16.888565
23
8.622076
33
-0.514229
12
16.891005
22
8.631523
32
-0.487664
11
16.728977
21
8.617348
31
-0.487664
10
16.747372
20
8.609724
30
-0.514229
0
3DFACE
8
0
70
0
13
16.891005
23
8.631523
33
-0.487664
12
16.893883
22
8.687773
32
-0.488432
11
16.682083
21
8.669241
31
-0.488432
10
16.728977
20
8.617348
30
-0.487664
0
3DFACE
8
0
70
0
13
16.747372
23
8.609724
33
-0.514229
12
16.728977
22
8.617348
32
-0.487664
11
16.728405
21
8.385311
31
-0.608170
10
16.744881
20
8.431858
30
-0.623755
0
3DFACE
8
0
70
0
13
16.728977
23
8.617348
33
-0.487664
12
16.682083
22
8.669241
32
-0.488432
11
16.680527
21
8.365705
31
-0.642963
10
16.728405
20
8.385311
30
-0.608170
0
3DFACE
8
0
70
0
13
16.744881
23
8.431858
33
-0.623755
12
16.728405
22
8.385311
32
-0.608170
11
16.882463
21
8.353378
31
-0.606780
10
16.912088
20
8.447033
30
-0.625680
0
3DFACE
8
0
70
0
13
16.728405
23
8.385311
33
-0.608170
12
16.680527
22
8.365705
32
-0.642963
11
16.881908
21
8.323961
31
-0.641147
10
16.882463
20
8.353378
30
-0.606780
0
3DFACE
8
0
70
0
13
16.912088
23
8.447033
33
-0.625680
12
16.882463
22
8.353378
32
-0.606780
11
17.036758
21
8.321375
31
-0.605100
10
17.009270
20
8.421631
30
-0.624545
0
3DFACE
8
0
70
0
13
16.882463
23
8.353378
33
-0.606780
12
16.881908
22
8.323961
32
-0.641147
11
17.116718
21
8.284792
31
-0.639035
10
17.036758
20
8.321375
30
-0.605100
0
3DFACE
8
0
70
0
13
16.602703
23
7.030340
33
-0.577760
12
16.592390
22
7.666183
32
-0.617024
11
16.577751
21
7.692448
31
-1.028708
10
16.731197
20
7.019369
30
-1.043182
0
3DFACE
8
0
70
0
13
16.577751
23
7.692448
33
-1.028708
12
16.350468
22
7.780718
32
-1.025329
11
16.493824
21
7.095982
31
-1.099443
10
16.731197
20
7.019369
30
-1.043182
0
3DFACE
8
0
70
0
13
16.602703
23
7.030340
33
-0.577760
12
16.398836
22
7.045801
32
-0.642788
11
16.365107
21
7.754454
31
-0.613645
10
16.592390
20
7.666183
30
-0.617024
0
3DFACE
8
0
70
0
13
16.398836
23
7.045801
33
-0.642788
12
16.194971
22
7.061264
32
-0.707816
11
16.137823
21
7.812722
31
-0.610266
10
16.365107
20
7.754454
30
-0.613645
0
3DFACE
8
0
70
0
13
16.524137
23
8.777715
33
-0.236287
12
16.303930
22
8.955012
32
-0.234071
11
16.285910
21
9.027467
31
-0.562974
10
16.506119
20
8.850169
30
-0.565190
0
3DFACE
8
0
70
0
13
16.303930
23
8.955012
33
-0.234071
12
16.110088
22
8.918124
32
-0.229897
11
16.092070
21
8.990581
31
-0.558800
10
16.285910
20
9.027467
30
-0.562974
0
3DFACE
8
0
70
0
13
16.592390
23
7.666183
33
-0.617024
12
16.550171
22
8.207704
32
-0.521589
11
16.536478
21
8.235644
31
-0.891687
10
16.577751
20
7.692448
30
-1.028708
0
3DFACE
8
0
70
0
13
16.577751
23
7.692448
33
-1.028708
12
16.536478
22
8.235644
32
-0.891687
11
16.314468
21
8.281079
31
-0.887916
10
16.350468
20
7.780718
30
-1.025329
0
3DFACE
8
0
70
0
13
16.592390
23
7.666183
33
-0.617024
12
16.365107
22
7.754454
32
-0.613645
11
16.328634
21
8.253976
31
-0.497025
10
16.550171
20
8.207704
30
-0.521589
0
3DFACE
8
0
70
0
13
16.137823
23
7.812722
33
-0.610266
12
16.123184
22
7.838986
32
-1.021951
11
16.092459
21
8.326510
31
-0.884146
10
16.107098
20
8.300244
30
-0.472461
0
3DFACE
8
0
70
0
13
16.365107
23
7.754454
33
-0.613645
12
16.137823
22
7.812722
32
-0.610266
11
16.107098
21
8.300244
31
-0.472461
10
16.328634
20
8.253976
30
-0.497025
0
3DFACE
8
0
70
0
13
16.350468
23
7.780718
33
-1.025329
12
16.314468
22
8.281079
32
-0.887916
11
16.092459
21
8.326510
31
-0.884146
10
16.123184
20
7.838986
30
-1.021951
0
3DFACE
8
0
70
0
13
16.546043
23
8.616431
33
-0.719405
12
16.542440
22
8.321088
32
-0.486560
11
16.524137
21
8.777715
31
-0.236287
10
16.506119
20
8.850169
30
-0.565190
0
3DFACE
8
0
70
0
13
16.536478
23
8.235644
33
-0.891687
12
16.550171
22
8.207704
32
-0.521589
11
16.542440
21
8.321088
31
-0.486560
10
16.546043
20
8.616431
30
-0.719405
0
3DFACE
8
0
70
0
13
16.536478
23
8.235644
33
-0.891687
12
16.546043
22
8.616431
32
-0.719405
11
16.292049
21
8.643807
31
-0.716276
10
16.314468
20
8.281079
30
-0.887916
0
3DFACE
8
0
70
0
13
16.420897
23
8.759868
33
-0.714144
12
16.413313
22
8.977017
32
-0.592635
11
16.284092
21
8.952428
31
-0.589852
10
16.315067
20
8.781354
30
-0.714025
0
3DFACE
8
0
70
0
13
16.542440
23
8.321088
33
-0.486560
12
16.324694
22
8.361392
32
-0.463025
11
16.303930
21
8.955012
31
-0.234071
10
16.524137
20
8.777715
30
-0.236287
0
3DFACE
8
0
70
0
13
16.550171
23
8.207704
33
-0.521589
12
16.328634
22
8.253976
32
-0.497025
11
16.324694
21
8.361392
31
-0.463025
10
16.542440
20
8.321088
30
-0.486560
0
3DFACE
8
0
70
0
13
16.073589
23
8.676291
33
-0.714406
12
16.092070
22
8.990581
32
-0.558800
11
16.110088
21
8.918124
31
-0.229897
10
16.107433
20
8.401612
30
-0.439400
0
3DFACE
8
0
70
0
13
16.092459
23
8.326510
33
-0.884146
12
16.073589
22
8.676291
32
-0.714406
11
16.107433
21
8.401612
31
-0.439400
10
16.107098
20
8.300244
30
-0.472461
0
3DFACE
8
0
70
0
13
16.314468
23
8.281079
33
-0.887916
12
16.292049
22
8.643807
32
-0.716276
11
16.073589
21
8.676291
31
-0.714406
10
16.092459
20
8.326510
30
-0.884146
0
3DFACE
8
0
70
0
13
16.315067
23
8.781354
33
-0.714025
12
16.284092
22
8.952428
32
-0.589852
11
16.154871
21
8.927836
31
-0.587069
10
16.137539
20
8.753215
30
-0.704055
0
3DFACE
8
0
70
0
13
16.324694
23
8.361392
33
-0.463025
12
16.107433
22
8.401612
32
-0.439400
11
16.110088
21
8.918124
31
-0.229897
10
16.303930
20
8.955012
30
-0.234071
0
3DFACE
8
0
70
0
13
16.328634
23
8.253976
33
-0.497025
12
16.107098
22
8.300244
32
-0.472461
11
16.107433
21
8.401612
31
-0.439400
10
16.324694
20
8.361392
30
-0.463025
0
3DFACE
8
0
70
0
13
16.420897
23
8.759868
33
-0.714144
12
16.458183
22
8.650550
32
-0.685603
11
16.434742
21
8.992557
31
-0.564624
10
16.413313
20
8.977017
30
-0.592635
0
3DFACE
8
0
70
0
13
16.458183
23
8.650550
33
-0.685603
12
16.546043
22
8.616431
32
-0.719405
11
16.506119
21
8.850169
31
-0.565190
10
16.434742
20
8.992557
30
-0.564624
0
3DFACE
8
0
70
0
13
16.413313
23
8.977017
33
-0.592635
12
16.434742
22
8.992557
32
-0.564624
11
16.286455
21
8.964335
31
-0.561430
10
16.284092
20
8.952428
30
-0.589852
0
3DFACE
8
0
70
0
13
16.434742
23
8.992557
33
-0.564624
12
16.506119
22
8.850169
32
-0.565190
11
16.285910
21
9.027467
31
-0.562974
10
16.286455
20
8.964335
30
-0.561430
0
3DFACE
8
0
70
0
13
16.284092
23
8.952428
33
-0.589852
12
16.286455
22
8.964335
32
-0.561430
11
16.138166
21
8.936116
31
-0.558236
10
16.154871
20
8.927836
30
-0.587069
0
3DFACE
8
0
70
0
13
16.286455
23
8.964335
33
-0.561430
12
16.285910
22
9.027467
32
-0.562974
11
16.092070
21
8.990581
31
-0.558800
10
16.138166
20
8.936116
30
-0.558236
0
3DFACE
8
0
70
0
13
16.154871
23
8.927836
33
-0.587069
12
16.138166
22
8.936116
32
-0.558236
11
16.123678
21
8.700315
31
-0.683034
10
16.137539
20
8.753215
30
-0.704055
0
3DFACE
8
0
70
0
13
16.138166
23
8.936116
33
-0.558236
12
16.092070
22
8.990581
32
-0.558800
11
16.073589
21
8.676291
31
-0.714406
10
16.123678
20
8.700315
30
-0.683034
0
3DFACE
8
0
70
0
13
16.137539
23
8.753215
33
-0.704055
12
16.123678
22
8.700315
32
-0.683034
11
16.290798
21
8.675464
31
-0.684464
10
16.315067
20
8.781354
30
-0.714025
0
3DFACE
8
0
70
0
13
16.123678
23
8.700315
33
-0.683034
12
16.073589
22
8.676291
32
-0.714406
11
16.292049
21
8.643807
31
-0.716276
10
16.290798
20
8.675464
30
-0.684464
0
3DFACE
8
0
70
0
13
16.315067
23
8.781354
33
-0.714025
12
16.290798
22
8.675464
32
-0.684464
11
16.458183
21
8.650550
31
-0.685603
10
16.420897
20
8.759868
30
-0.714144
0
3DFACE
8
0
70
0
13
16.290798
23
8.675464
33
-0.684464
12
16.292049
22
8.643807
32
-0.716276
11
16.546043
21
8.616431
31
-0.719405
10
16.458183
20
8.650550
30
-0.685603
0
3DFACE
8
0
70
0
13
16.602703
23
7.030340
33
-0.577760
12
16.817591
22
6.950186
32
-0.557786
11
16.856596
21
6.525820
31
-0.243939
10
16.509928
20
6.603132
30
-0.175733
0
3DFACE
8
0
70
0
13
16.817591
23
6.950186
33
-0.557786
12
17.032480
22
6.870028
32
-0.537812
11
17.203264
21
6.448507
31
-0.312145
10
16.856596
20
6.525820
30
-0.243939
0
3DFACE
8
0
70
0
13
16.509928
23
6.603132
33
-0.175733
12
16.856596
22
6.525820
32
-0.243939
11
16.961740
21
6.078688
31
-0.466600
10
16.707848
20
6.001375
30
-0.460244
0
3DFACE
8
0
70
0
13
16.856596
23
6.525820
33
-0.243939
12
17.203264
22
6.448507
32
-0.312145
11
17.215633
21
6.156000
31
-0.472956
10
16.961740
20
6.078688
30
-0.466600
0
3DFACE
8
0
70
0
13
16.707848
23
6.001375
33
-0.460244
12
16.961740
22
6.078688
32
-0.466600
11
16.933908
21
5.280395
31
-0.243939
10
16.664553
20
5.203082
30
-0.175733
0
3DFACE
8
0
70
0
13
16.961740
23
6.078688
33
-0.466600
12
17.215633
22
6.156000
32
-0.472956
11
17.203264
21
5.357707
31
-0.312145
10
16.933908
20
5.280395
30
-0.243939
0
3DFACE
8
0
70
0
13
16.664553
23
5.203082
33
-0.175733
12
16.933908
22
5.280395
32
-0.243939
11
16.841133
21
4.854249
31
-0.398565
10
16.664553
20
4.792399
30
-0.392209
0
3DFACE
8
0
70
0
13
16.933908
23
5.280395
33
-0.243939
12
17.203264
22
5.357707
32
-0.312145
11
16.986788
21
4.947024
31
-0.466771
10
16.841133
20
4.854249
30
-0.398565
0
3DFACE
8
0
70
0
13
16.664553
23
4.792399
33
-0.392209
12
16.841133
22
4.854249
32
-0.398565
11
16.695944
21
4.358845
31
-0.365195
10
16.526176
20
4.359920
30
-0.312145
0
3DFACE
8
0
70
0
13
16.841133
23
4.854249
33
-0.398565
12
16.986788
22
4.947024
32
-0.466771
11
16.825710
21
4.377771
31
-0.418244
10
16.695944
20
4.358845
30
-0.365195
0
3DFACE
8
0
70
0
13
17.162546
23
6.673019
33
-0.945070
12
17.065908
22
6.773172
32
-0.991543
11
17.001759
21
6.394388
31
-1.164724
10
17.235764
20
6.293880
30
-1.130621
0
3DFACE
8
0
70
0
13
17.065908
23
6.773172
33
-0.991543
12
16.772991
22
6.989845
32
-1.029622
11
16.767756
21
6.494894
31
-1.198827
10
17.001759
20
6.394388
30
-1.164724
0
3DFACE
8
0
70
0
13
17.235764
23
6.293880
33
-1.130621
12
17.001759
22
6.394388
32
-1.164724
11
17.001759
21
5.951895
31
-1.164724
10
17.235764
20
5.951895
30
-1.130621
0
3DFACE
8
0
70
0
13
17.001759
23
6.394388
33
-1.164724
12
16.767756
22
6.494894
32
-1.198827
11
16.767756
21
5.951895
31
-1.198827
10
17.001759
20
5.951895
30
-1.164724
0
3DFACE
8
0
70
0
13
17.235764
23
5.951895
33
-1.130621
12
17.001759
22
5.951895
32
-1.164724
11
17.001759
21
5.203082
31
-1.164724
10
17.235764
20
5.203082
30
-1.130621
0
3DFACE
8
0
70
0
13
17.001759
23
5.951895
33
-1.164724
12
16.767756
22
5.951895
32
-1.198827
11
16.767756
21
5.203082
31
-1.198827
10
17.001759
20
5.203082
30
-1.164724
0
3DFACE
8
0
70
0
13
17.235764
23
5.203082
33
-1.130621
12
17.001759
22
5.203082
32
-1.164724
11
17.001759
21
4.761474
31
-1.041023
10
17.019287
20
4.761474
30
-1.006920
0
3DFACE
8
0
70
0
13
17.001759
23
5.203082
33
-1.164724
12
16.767756
22
5.203082
32
-1.198827
11
16.767756
21
4.761474
31
-1.075127
10
17.001759
20
4.761474
30
-1.041023
0
3DFACE
8
0
70
0
13
17.019287
23
4.761474
33
-1.006920
12
17.001759
22
4.761474
32
-1.041023
11
16.846355
21
4.370995
31
-1.051047
10
17.013359
20
4.384995
30
-1.024522
0
3DFACE
8
0
70
0
13
17.001759
23
4.761474
33
-1.041023
12
16.767756
22
4.761474
32
-1.075127
11
16.679354
21
4.356996
31
-1.077572
10
16.846355
20
4.370995
30
-1.051047
0
3DFACE
8
0
70
0
13
17.103872
23
7.421425
33
-0.569997
12
17.134140
22
7.937521
32
-0.454028
11
17.130772
21
7.976030
31
-0.797683
10
17.088133
20
7.459934
30
-0.939939
0
3DFACE
8
0
70
0
13
17.130772
23
7.976030
33
-0.797683
12
17.134140
22
7.937521
32
-0.454028
11
17.130995
21
8.037754
31
-0.420421
10
17.116718
20
8.284792
30
-0.639035
0
3DFACE
8
0
70
0
13
17.116718
23
8.284792
33
-0.639035
12
17.130995
22
8.037754
32
-0.420421
11
17.129269
21
8.436737
31
-0.183433
10
17.122532
20
8.513754
30
-0.488432
0
3DFACE
8
0
70
0
13
17.129269
23
8.436737
33
-0.183433
12
16.900621
22
8.610754
32
-0.183433
11
16.893883
21
8.687773
31
-0.488432
10
17.122532
20
8.513754
30
-0.488432
0
3DFACE
8
0
70
0
13
16.900621
23
8.610754
33
-0.183433
12
16.688822
22
8.592222
32
-0.183433
11
16.682083
21
8.669241
31
-0.488432
10
16.893883
20
8.687773
30
-0.488432
0
3DFACE
8
0
70
0
13
16.680527
23
8.365705
33
-0.642963
12
16.682083
22
8.669241
32
-0.488432
11
16.688822
21
8.592222
31
-0.183433
10
16.663532
20
8.140139
30
-0.383576
0
3DFACE
8
0
70
0
13
16.655184
23
8.089636
33
-0.797683
12
16.680527
22
8.365705
32
-0.642963
11
16.663532
21
8.140139
31
-0.383576
10
16.658552
20
8.051128
30
-0.415372
0
3DFACE
8
0
70
0
13
16.631546
23
7.647051
33
-0.554997
12
16.702396
22
7.648453
32
-0.937309
11
16.655184
21
8.089636
31
-0.797683
10
16.658552
20
8.051128
30
-0.415372
0
3DFACE
8
0
70
0
13
16.194971
23
7.061264
33
-0.707816
12
16.398836
22
7.045801
32
-0.642788
11
16.367561
21
6.618612
31
-0.236482
10
16.225193
20
6.634092
30
-0.297231
0
3DFACE
8
0
70
0
13
16.398836
23
7.045801
33
-0.642788
12
16.602703
22
7.030340
32
-0.577760
11
16.509928
21
6.603132
31
-0.175733
10
16.367561
20
6.618612
30
-0.236482
0
3DFACE
8
0
70
0
13
16.225193
23
6.634092
33
-0.297231
12
16.367561
22
6.618612
32
-0.236482
11
16.512035
21
5.998629
31
-0.417554
10
16.316225
20
5.995882
30
-0.374864
0
3DFACE
8
0
70
0
13
16.367561
23
6.618612
33
-0.236482
12
16.509928
22
6.603132
32
-0.175733
11
16.707848
21
6.001375
31
-0.460244
10
16.512035
20
5.998629
30
-0.417554
0
3DFACE
8
0
70
0
13
16.316225
23
5.995882
33
-0.374864
12
16.512035
22
5.998629
32
-0.417554
11
16.449228
21
5.192225
31
-0.188059
10
16.233904
20
5.181369
30
-0.200385
0
3DFACE
8
0
70
0
13
16.512035
23
5.998629
33
-0.417554
12
16.707848
22
6.001375
32
-0.460244
11
16.664553
21
5.203082
31
-0.175733
10
16.449228
20
5.192225
30
-0.188059
0
3DFACE
8
0
70
0
13
16.233904
23
5.181369
33
-0.200385
12
16.449228
22
5.192225
32
-0.188059
11
16.507074
21
4.761474
31
-0.302611
10
16.318672
20
4.761474
30
-0.398565
0
3DFACE
8
0
70
0
13
16.449228
23
5.192225
33
-0.188059
12
16.664553
22
5.203082
32
-0.175733
11
16.664553
21
4.792399
31
-0.392209
10
16.507074
20
4.761474
30
-0.302611
0
3DFACE
8
0
70
0
13
16.318672
23
4.761474
33
-0.398565
12
16.507074
22
4.761474
32
-0.302611
11
16.402636
21
4.350726
31
-0.338670
10
16.279093
20
4.341532
30
-0.365195
0
3DFACE
8
0
70
0
13
16.507074
23
4.761474
33
-0.302611
12
16.664553
22
4.792399
32
-0.392209
11
16.526176
21
4.359920
31
-0.312145
10
16.402636
20
4.350726
30
-0.338670
0
3DFACE
8
0
70
0
13
16.772991
23
6.989845
33
-1.029622
12
16.731197
22
7.019369
32
-1.043182
11
16.533751
21
6.595400
31
-1.232930
10
16.767756
20
6.494894
30
-1.198827
0
3DFACE
8
0
70
0
13
16.767756
23
6.494894
33
-1.198827
12
16.533751
22
6.595400
32
-1.232930
11
16.533751
21
5.951895
31
-1.232930
10
16.767756
20
5.951895
30
-1.198827
0
3DFACE
8
0
70
0
13
16.767756
23
5.951895
33
-1.198827
12
16.533751
22
5.951895
32
-1.232930
11
16.533751
21
5.203082
31
-1.232930
10
16.767756
20
5.203082
30
-1.198827
0
3DFACE
8
0
70
0
13
16.767756
23
5.203082
33
-1.198827
12
16.533751
22
5.203082
32
-1.232930
11
16.533751
21
4.761474
31
-1.109230
10
16.767756
20
4.761474
30
-1.075127
0
3DFACE
8
0
70
0
13
16.767756
23
4.761474
33
-1.075127
12
16.533751
22
4.761474
32
-1.109230
11
16.512350
21
4.342995
31
-1.104096
10
16.679354
20
4.356996
30
-1.077572
0
3DFACE
8
0
70
0
13
16.731197
23
7.019369
33
-1.043182
12
16.493824
22
7.095982
32
-1.099443
11
16.416748
21
6.645655
31
-1.249982
10
16.533751
20
6.595400
30
-1.232930
0
3DFACE
8
0
70
0
13
16.493824
23
7.095982
33
-1.099443
12
16.226675
22
7.151623
32
-1.084280
11
16.299747
21
6.695908
31
-1.267034
10
16.416748
20
6.645655
30
-1.249982
0
3DFACE
8
0
70
0
13
16.533751
23
6.595400
33
-1.232930
12
16.416748
22
6.645655
32
-1.249982
11
16.416748
21
5.951895
31
-1.249982
10
16.533751
20
5.951895
30
-1.232930
0
3DFACE
8
0
70
0
13
16.416748
23
6.645655
33
-1.249982
12
16.299747
22
6.695908
32
-1.267034
11
16.299747
21
5.951895
31
-1.267034
10
16.416748
20
5.951895
30
-1.249982
0
3DFACE
8
0
70
0
13
16.533751
23
5.951895
33
-1.232930
12
16.416748
22
5.951895
32
-1.249982
11
16.416748
21
5.203082
31
-1.249982
10
16.533751
20
5.203082
30
-1.232930
0
3DFACE
8
0
70
0
13
16.416748
23
5.951895
33
-1.249982
12
16.299747
22
5.951895
32
-1.267034
11
16.299747
21
5.203082
31
-1.267034
10
16.416748
20
5.203082
30
-1.249982
0
3DFACE
8
0
70
0
13
16.533751
23
5.203082
33
-1.232930
12
16.416748
22
5.203082
32
-1.249982
11
16.416748
21
4.761474
31
-1.126281
10
16.533751
20
4.761474
30
-1.109230
0
3DFACE
8
0
70
0
13
16.416748
23
5.203082
33
-1.249982
12
16.299747
22
5.203082
32
-1.267034
11
16.299747
21
4.761474
31
-1.143333
10
16.416748
20
4.761474
30
-1.126281
0
3DFACE
8
0
70
0
13
16.533751
23
4.761474
33
-1.109230
12
16.416748
22
4.761474
32
-1.126281
11
16.428848
21
4.335995
31
-1.117359
10
16.512350
20
4.342995
30
-1.104096
0
3DFACE
8
0
70
0
13
16.416748
23
4.761474
33
-1.126281
12
16.299747
22
4.761474
32
-1.143333
11
16.345348
21
4.328994
31
-1.130621
10
16.428848
20
4.335995
30
-1.117359
0
3DFACE
8
0
70
0
13
17.365324
23
7.338015
33
-0.791176
12
17.388077
22
7.504833
32
-0.738371
11
17.172262
21
7.572987
31
-0.754318
10
17.148926
20
7.442036
30
-0.807334
0
3DFACE
8
0
70
0
13
16.194971
23
7.061264
33
-0.707816
12
15.973887
22
7.604334
32
-0.617024
11
16.021099
21
7.630598
31
-1.028708
10
16.226675
20
7.151623
30
-1.084280
0
3DFACE
8
0
70
0
13
15.547708
23
7.123114
33
-1.130621
12
15.566532
22
7.743437
32
-1.021951
11
15.539322
21
7.768097
31
-0.610266
10
15.509307
20
7.123114
30
-0.721383
0
3DFACE
8
0
70
0
13
16.021099
23
7.630598
33
-1.028708
12
15.731966
22
7.718866
32
-1.025329
11
15.686177
21
7.124998
31
-1.132191
10
16.226675
20
7.151623
30
-1.084280
0
3DFACE
8
0
70
0
13
15.731966
23
7.718866
33
-1.025329
12
15.566532
22
7.743437
32
-1.021951
11
15.547708
21
7.123114
31
-1.130621
10
15.686177
20
7.124998
30
-1.132191
0
3DFACE
8
0
70
0
13
16.194971
23
7.061264
33
-0.707816
12
15.941865
22
7.123114
32
-0.652322
11
15.746605
21
7.692602
31
-0.613645
10
15.973887
20
7.604334
30
-0.617024
0
3DFACE
8
0
70
0
13
15.950637
23
8.710865
33
-0.226287
12
15.730428
22
8.888163
32
-0.224071
11
15.712409
21
8.960617
31
-0.552974
10
15.932618
20
8.783318
30
-0.555190
0
3DFACE
8
0
70
0
13
15.730428
23
8.888163
33
-0.224071
12
15.536587
22
8.851276
32
-0.219897
11
15.518568
21
8.923729
31
-0.548800
10
15.712409
20
8.960617
30
-0.552974
0
3DFACE
8
0
70
0
13
15.973887
23
7.604334
33
-0.617024
12
15.976668
22
8.140856
32
-0.511589
11
15.962976
21
8.168797
31
-0.881687
10
16.021099
20
7.630598
30
-1.028708
0
3DFACE
8
0
70
0
13
16.021099
23
7.630598
33
-1.028708
12
15.962976
22
8.168797
32
-0.881687
11
15.740967
21
8.214228
31
-0.877916
10
15.731966
20
7.718866
30
-1.025329
0
3DFACE
8
0
70
0
13
15.973887
23
7.604334
33
-0.617024
12
15.746605
22
7.692602
32
-0.613645
11
15.755133
21
8.187124
31
-0.487025
10
15.976668
20
8.140856
30
-0.511589
0
3DFACE
8
0
70
0
13
15.539322
23
7.768097
33
-0.610266
12
15.566532
22
7.743437
32
-1.021951
11
15.518957
21
8.259661
31
-0.874146
10
15.533596
20
8.233395
30
-0.462461
0
3DFACE
8
0
70
0
13
15.746605
23
7.692602
33
-0.613645
12
15.539322
22
7.768097
32
-0.610266
11
15.533596
21
8.233395
31
-0.462461
10
15.755133
20
8.187124
30
-0.487025
0
3DFACE
8
0
70
0
13
15.731966
23
7.718866
33
-1.025329
12
15.740967
22
8.214228
32
-0.877916
11
15.518957
21
8.259661
31
-0.874146
10
15.566532
20
7.743437
30
-1.021951
0
3DFACE
8
0
70
0
13
15.972542
23
8.549583
33
-0.709405
12
15.968939
22
8.254238
32
-0.476560
11
15.950637
21
8.710865
31
-0.226287
10
15.932618
20
8.783318
30
-0.555190
0
3DFACE
8
0
70
0
13
15.962976
23
8.168797
33
-0.881687
12
15.976668
22
8.140856
32
-0.511589
11
15.968939
21
8.254238
31
-0.476560
10
15.972542
20
8.549583
30
-0.709405
0
3DFACE
8
0
70
0
13
15.962976
23
8.168797
33
-0.881687
12
15.972542
22
8.549583
32
-0.709405
11
15.718548
21
8.576960
31
-0.706276
10
15.740967
20
8.214228
30
-0.877916
0
3DFACE
8
0
70
0
13
15.847394
23
8.693018
33
-0.704144
12
15.839812
22
8.910168
32
-0.582635
11
15.710592
21
8.885576
31
-0.579852
10
15.741567
20
8.714504
30
-0.704025
0
3DFACE
8
0
70
0
13
15.968939
23
8.254238
33
-0.476560
12
15.751192
22
8.294542
32
-0.453025
11
15.730428
21
8.888163
31
-0.224071
10
15.950637
20
8.710865
30
-0.226287
0
3DFACE
8
0
70
0
13
15.976668
23
8.140856
33
-0.511589
12
15.755133
22
8.187124
32
-0.487025
11
15.751192
21
8.294542
31
-0.453025
10
15.968939
20
8.254238
30
-0.476560
0
3DFACE
8
0
70
0
13
15.500089
23
8.609442
33
-0.704406
12
15.518568
22
8.923729
32
-0.548800
11
15.536587
21
8.851276
31
-0.219897
10
15.533933
20
8.334761
30
-0.429400
0
3DFACE
8
0
70
0
13
15.518957
23
8.259661
33
-0.874146
12
15.500089
22
8.609442
32
-0.704406
11
15.533933
21
8.334761
31
-0.429400
10
15.533596
20
8.233395
30
-0.462461
0
3DFACE
8
0
70
0
13
15.740967
23
8.214228
33
-0.877916
12
15.718548
22
8.576960
32
-0.706276
11
15.500089
21
8.609442
31
-0.704406
10
15.518957
20
8.259661
30
-0.874146
0
3DFACE
8
0
70
0
13
15.741567
23
8.714504
33
-0.704025
12
15.710592
22
8.885576
32
-0.579852
11
15.581370
21
8.860985
31
-0.577069
10
15.564036
20
8.686365
30
-0.694055
0
3DFACE
8
0
70
0
13
15.751192
23
8.294542
33
-0.453025
12
15.533933
22
8.334761
32
-0.429400
11
15.536587
21
8.851276
31
-0.219897
10
15.730428
20
8.888163
30
-0.224071
0
3DFACE
8
0
70
0
13
15.755133
23
8.187124
33
-0.487025
12
15.533596
22
8.233395
32
-0.462461
11
15.533933
21
8.334761
31
-0.429400
10
15.751192
20
8.294542
30
-0.453025
0
3DFACE
8
0
70
0
13
15.847394
23
8.693018
33
-0.704144
12
15.884682
22
8.583700
32
-0.675603
11
15.861241
21
8.925705
31
-0.554624
10
15.839812
20
8.910168
30
-0.582635
0
3DFACE
8
0
70
0
13
15.884682
23
8.583700
33
-0.675603
12
15.972542
22
8.549583
32
-0.709405
11
15.932618
21
8.783318
31
-0.555190
10
15.861241
20
8.925705
30
-0.554624
0
3DFACE
8
0
70
0
13
15.839812
23
8.910168
33
-0.582635
12
15.861241
22
8.925705
32
-0.554624
11
15.712954
21
8.897484
31
-0.551430
10
15.710592
20
8.885576
30
-0.579852
0
3DFACE
8
0
70
0
13
15.861241
23
8.925705
33
-0.554624
12
15.932618
22
8.783318
32
-0.555190
11
15.712409
21
8.960617
31
-0.552974
10
15.712954
20
8.897484
30
-0.551430
0
3DFACE
8
0
70
0
13
15.710592
23
8.885576
33
-0.579852
12
15.712954
22
8.897484
32
-0.551430
11
15.564665
21
8.869267
31
-0.548236
10
15.581370
20
8.860985
30
-0.577069
0
3DFACE
8
0
70
0
13
15.712954
23
8.897484
33
-0.551430
12
15.712409
22
8.960617
32
-0.552974
11
15.518568
21
8.923729
31
-0.548800
10
15.564665
20
8.869267
30
-0.548236
0
3DFACE
8
0
70
0
13
15.581370
23
8.860985
33
-0.577069
12
15.564665
22
8.869267
32
-0.548236
11
15.550176
21
8.633465
31
-0.673034
10
15.564036
20
8.686365
30
-0.694055
0
3DFACE
8
0
70
0
13
15.564665
23
8.869267
33
-0.548236
12
15.518568
22
8.923729
32
-0.548800
11
15.500089
21
8.609442
31
-0.704406
10
15.550176
20
8.633465
30
-0.673034
0
3DFACE
8
0
70
0
13
15.564036
23
8.686365
33
-0.694055
12
15.550176
22
8.633465
32
-0.673034
11
15.717298
21
8.608614
31
-0.674464
10
15.741567
20
8.714504
30
-0.704025
0
3DFACE
8
0
70
0
13
15.550176
23
8.633465
33
-0.673034
12
15.500089
22
8.609442
32
-0.704406
11
15.718548
21
8.576960
31
-0.706276
10
15.717298
20
8.608614
30
-0.674464
0
3DFACE
8
0
70
0
13
15.741567
23
8.714504
33
-0.704025
12
15.717298
22
8.608614
32
-0.674464
11
15.884682
21
8.583700
31
-0.675603
10
15.847394
20
8.693018
30
-0.704144
0
3DFACE
8
0
70
0
13
15.717298
23
8.608614
33
-0.674464
12
15.718548
22
8.576960
32
-0.706276
11
15.972542
21
8.549583
31
-0.709405
10
15.884682
20
8.583700
30
-0.675603
0
3DFACE
8
0
70
0
13
16.226675
23
7.151623
33
-1.084280
12
15.686177
22
7.124998
32
-1.132191
11
15.852652
21
6.603024
31
-1.197022
10
16.299747
20
6.695908
30
-1.267034
0
3DFACE
8
0
70
0
13
15.686177
23
7.124998
33
-1.132191
12
15.547708
22
7.123114
32
-1.130621
11
15.498331
21
6.417364
31
-1.127010
10
15.852652
20
6.603024
30
-1.197022
0
3DFACE
8
0
70
0
13
16.299747
23
6.695908
33
-1.267034
12
15.852652
22
6.603024
32
-1.197022
11
15.807201
21
5.946100
31
-1.219689
10
16.299747
20
5.951895
30
-1.267034
0
3DFACE
8
0
70
0
13
15.852652
23
6.603024
33
-1.197022
12
15.498331
22
6.417364
32
-1.127010
11
15.314655
21
5.940304
31
-1.172343
10
15.807201
20
5.946100
30
-1.219689
0
3DFACE
8
0
70
0
13
16.299747
23
5.951895
33
-1.267034
12
15.807201
22
5.946100
32
-1.219689
11
15.784049
21
5.181223
31
-1.192950
10
16.299747
20
5.203082
30
-1.267034
0
3DFACE
8
0
70
0
13
15.807201
23
5.946100
33
-1.219689
12
15.314655
22
5.940304
32
-1.172343
11
15.268350
21
5.159364
31
-1.118867
10
15.784049
20
5.181223
30
-1.192950
0
3DFACE
8
0
70
0
13
16.299747
23
5.203082
33
-1.267034
12
15.784049
22
5.181223
32
-1.192950
11
15.923727
21
4.761474
31
-1.075127
10
16.299747
20
4.761474
30
-1.143333
0
3DFACE
8
0
70
0
13
15.784049
23
5.181223
33
-1.192950
12
15.268350
22
5.159364
32
-1.118867
11
15.547708
21
4.761474
31
-1.006920
10
15.923727
20
4.761474
30
-1.075127
0
3DFACE
8
0
70
0
13
16.299747
23
4.761474
33
-1.143333
12
15.923727
22
4.761474
32
-1.075127
11
16.046810
21
4.356996
31
-1.077572
10
16.345348
20
4.328994
30
-1.130621
0
3DFACE
8
0
70
0
13
15.923727
23
4.761474
33
-1.075127
12
15.547708
22
4.761474
32
-1.006920
11
15.748271
21
4.384995
31
-1.024522
10
16.046810
20
4.356996
30
-1.077572
0
3DFACE
8
0
70
0
13
14.620399
23
6.743409
33
-0.253168
12
14.515653
22
6.891256
32
-0.086563
11
14.324116
21
6.760866
31
-0.133342
10
14.470654
20
6.547204
30
-0.280873
0
3DFACE
8
0
70
0
13
14.470654
23
6.547204
33
-0.280873
12
14.497190
22
6.513542
32
-0.288403
11
14.605145
21
6.775562
31
-0.279773
10
14.620399
20
6.743409
30
-0.253168
0
3DFACE
8
0
70
0
13
14.470654
23
6.547204
33
-0.280873
12
14.324116
22
6.760866
32
-0.133342
11
14.202216
21
6.742228
31
-0.015036
10
14.434091
20
6.431358
30
-0.171665
0
3DFACE
8
0
70
0
13
14.434091
23
6.431358
33
-0.171665
12
14.545964
22
6.300489
32
-0.188293
11
14.497190
21
6.513542
31
-0.288403
10
14.470654
20
6.547204
30
-0.280873
0
3DFACE
8
0
70
0
13
14.434091
23
6.431358
33
-0.171665
12
14.272216
22
6.682228
32
-0.075036
11
14.201359
21
6.777300
31
0.152111
10
14.466490
20
6.406136
30
-0.022848
0
3DFACE
8
0
70
0
13
14.466490
23
6.406136
33
-0.022848
12
14.611620
22
6.214972
32
-0.057808
11
14.545964
21
6.300489
31
-0.188293
10
14.434091
20
6.431358
30
-0.171665
0
3DFACE
8
0
70
0
13
14.537909
23
6.410343
33
0.075579
12
14.633174
22
6.255894
32
0.090056
11
14.611620
21
6.214972
31
-0.057808
10
14.466490
20
6.406136
30
-0.022848
0
3DFACE
8
0
70
0
13
14.466490
23
6.406136
33
-0.022848
12
14.201359
22
6.777300
32
0.152111
11
14.322642
21
6.744793
31
0.201102
10
14.537909
20
6.410343
30
0.075579
0
3DFACE
8
0
70
0
13
14.751067
23
6.772041
33
-0.109874
12
14.611818
22
7.003340
32
0.052162
11
14.515653
21
6.891256
31
-0.086563
10
14.620399
20
6.743409
30
-0.253168
0
3DFACE
8
0
70
0
13
14.620399
23
6.743409
33
-0.253168
12
14.605145
22
6.775562
32
-0.279773
11
14.770314
21
6.720743
31
-0.131910
10
14.751067
20
6.772041
30
-0.109874
0
3DFACE
8
0
70
0
13
14.707011
23
6.567141
33
0.121555
12
14.741128
22
6.517914
32
0.146558
11
14.633174
21
6.255894
31
0.090056
10
14.537909
20
6.410343
30
0.075579
0
3DFACE
8
0
70
0
13
14.537909
23
6.410343
33
0.075579
12
14.322642
22
6.744793
32
0.201102
11
14.552893
21
6.796368
31
0.236552
10
14.707011
20
6.567141
30
0.121555
0
3DFACE
8
0
70
0
13
14.806025
23
6.764522
33
0.018011
12
14.788098
22
6.778839
32
0.046447
11
14.741128
21
6.517914
31
0.146558
10
14.707011
20
6.567141
30
0.121555
0
3DFACE
8
0
70
0
13
14.707011
23
6.567141
33
0.121555
12
14.552893
22
6.796368
32
0.236552
11
14.683949
21
6.750204
31
0.129575
10
14.806025
20
6.764522
30
0.018011
0
3DFACE
8
0
70
0
13
14.751067
23
6.772041
33
-0.109874
12
14.770314
22
6.720743
32
-0.131910
11
14.788098
21
6.778839
31
0.046447
10
14.806025
20
6.764522
30
0.018011
0
3DFACE
8
0
70
0
13
14.806025
23
6.764522
33
0.018011
12
14.683949
22
6.750204
32
0.129575
11
14.611818
21
7.003340
31
0.052162
10
14.751067
20
6.772041
30
-0.109874
0
3DFACE
8
0
70
0
13
14.620399
23
6.743409
33
-0.253168
12
14.620399
22
6.743409
32
-0.253168
11
14.515653
21
6.891256
31
-0.086563
10
14.515653
20
6.891256
30
-0.086563
0
3DFACE
8
0
70
0
13
14.324116
23
6.760866
33
-0.133342
12
14.515653
22
6.891256
32
-0.086563
11
14.515653
21
6.891256
31
-0.086563
10
14.304115
20
6.780866
30
-0.133342
0
3DFACE
8
0
70
0
13
14.470654
23
6.547204
33
-0.280873
12
14.470654
22
6.547204
32
-0.280873
11
14.620399
21
6.743409
31
-0.253168
10
14.620399
20
6.743409
30
-0.253168
0
3DFACE
8
0
70
0
13
14.272216
23
6.682228
33
-0.075036
12
14.324116
22
6.760866
32
-0.133342
11
14.304115
21
6.780866
31
-0.133342
10
14.272216
20
6.682228
30
-0.075036
0
3DFACE
8
0
70
0
13
14.434091
23
6.431358
33
-0.171665
12
14.272216
22
6.682228
32
-0.075036
11
14.272216
21
6.682228
31
-0.075036
10
14.434091
20
6.431358
30
-0.171665
0
3DFACE
8
0
70
0
13
14.434091
23
6.431358
33
-0.171665
12
14.434091
22
6.431358
32
-0.171665
11
14.470654
21
6.547204
31
-0.280873
10
14.470654
20
6.547204
30
-0.280873
0
3DFACE
8
0
70
0
13
14.620399
23
6.743409
33
-0.253168
12
14.620399
22
6.743409
32
-0.253168
11
14.515653
21
6.891256
31
-0.086563
10
14.515653
20
6.891256
30
-0.086563
0
3DFACE
8
0
70
0
13
14.324116
23
6.760866
33
-0.133342
12
14.515653
22
6.891256
32
-0.086563
11
14.515653
21
6.891256
31
-0.086563
10
14.324116
20
6.760866
30
-0.133342
0
3DFACE
8
0
70
0
13
14.470654
23
6.547204
33
-0.280873
12
14.470654
22
6.547204
32
-0.280873
11
14.620399
21
6.743409
31
-0.253168
10
14.620399
20
6.743409
30
-0.253168
0
3DFACE
8
0
70
0
13
14.202216
23
6.742228
33
-0.015036
12
14.324116
22
6.760866
32
-0.133342
11
14.324116
21
6.760866
31
-0.133342
10
14.272216
20
6.682228
30
-0.075036
0
3DFACE
8
0
70
0
13
14.434091
23
6.431358
33
-0.171665
12
14.202216
22
6.742228
32
-0.015036
11
14.272216
21
6.682228
31
-0.075036
10
14.434091
20
6.431358
30
-0.171665
0
3DFACE
8
0
70
0
13
14.434091
23
6.431358
33
-0.171665
12
14.434091
22
6.431358
32
-0.171665
11
14.470654
21
6.547204
31
-0.280873
10
14.470654
20
6.547204
30
-0.280873
0
3DFACE
8
0
70
0
13
17.032480
23
6.870028
33
-0.537812
12
17.103872
22
7.421425
32
-0.569997
11
17.088133
21
7.459934
31
-0.939939
10
17.065908
20
6.773172
30
-0.991543
0
3DFACE
8
0
70
0
13
16.731197
23
7.019369
33
-1.043182
12
16.702396
22
7.648453
32
-0.937309
11
16.631546
21
7.647051
31
-0.554997
10
16.602703
20
7.030340
30
-0.577760
0
3DFACE
8
0
70
0
13
16.846970
23
7.555248
33
-0.939939
12
16.702396
22
7.648453
32
-0.937309
11
16.731197
21
7.019369
31
-1.043182
10
16.772991
20
6.989845
30
-1.029622
0
3DFACE
8
0
70
0
13
16.350468
23
7.780718
33
-1.025329
12
16.123184
22
7.838986
32
-1.021951
11
16.226675
21
7.151623
31
-1.084280
10
16.493824
20
7.095982
30
-1.099443
0
3DFACE
8
0
70
0
13
16.226675
23
7.151623
33
-1.084280
12
16.123184
22
7.838986
32
-1.021951
11
16.137823
21
7.812722
31
-0.610266
10
16.194971
20
7.061264
30
-0.707816
0
3DFACE
8
0
70
0
13
15.941865
23
7.123114
33
-0.652322
12
15.509307
22
7.123114
32
-0.721383
11
15.539322
21
7.768097
31
-0.610266
10
15.746605
20
7.692602
30
-0.613645
0
ENDSEC
0
EOF
